<?xml version="1.0" encoding="UTF-8"?>
<svg version="1.1" xmlns="http://www.w3.org/2000/svg" width="443" height="563">
<path d="M0 0 C4.5612869 2.29055929 7.78410404 5.77006643 10.046875 10.33984375 C10.80483354 13.95183017 10.91904694 17.53303559 11.046875 21.21484375 C13.555984 63.77749853 29.74549976 100.63113227 55.84472656 133.79492188 C56.37678711 134.47490234 56.90884766 135.15488281 57.45703125 135.85546875 C57.93277588 136.45649414 58.40852051 137.05751953 58.89868164 137.67675781 C60.046875 139.33984375 60.046875 139.33984375 61.046875 142.33984375 C61.706875 142.33984375 62.366875 142.33984375 63.046875 142.33984375 C64.5546875 144.01953125 64.5546875 144.01953125 66.171875 146.21484375 C66.71070313 146.93414062 67.24953125 147.6534375 67.8046875 148.39453125 C69.046875 150.33984375 69.046875 150.33984375 69.046875 152.33984375 C70.036875 152.66984375 71.026875 152.99984375 72.046875 153.33984375 C72.046875 153.99984375 72.046875 154.65984375 72.046875 155.33984375 C72.706875 155.33984375 73.366875 155.33984375 74.046875 155.33984375 C75.52734375 156.84375 75.52734375 156.84375 77.234375 158.90234375 C79.57967258 161.66523055 81.95516905 164.30664132 84.546875 166.83984375 C86.83717395 169.08996202 88.97526239 171.38773087 91.046875 173.83984375 C95.4089431 178.93731825 100.25624017 183.56852739 105.06835938 188.23632812 C105.70966797 188.86603516 106.35097656 189.49574219 107.01171875 190.14453125 C107.5955835 190.71155762 108.17944824 191.27858398 108.78100586 191.86279297 C110.046875 193.33984375 110.046875 193.33984375 110.046875 195.33984375 C111.036875 195.66984375 112.026875 195.99984375 113.046875 196.33984375 C113.046875 196.99984375 113.046875 197.65984375 113.046875 198.33984375 C114.036875 198.66984375 115.026875 198.99984375 116.046875 199.33984375 C117.65234375 200.8984375 117.65234375 200.8984375 119.234375 202.77734375 C119.76417969 203.39480469 120.29398437 204.01226562 120.83984375 204.6484375 C122.046875 206.33984375 122.046875 206.33984375 122.046875 208.33984375 C123.036875 208.66984375 124.026875 208.99984375 125.046875 209.33984375 C126.87109375 211.3359375 126.87109375 211.3359375 128.734375 213.77734375 C129.35699219 214.58042969 129.97960937 215.38351563 130.62109375 216.2109375 C132.046875 218.33984375 132.046875 218.33984375 132.046875 220.33984375 C132.706875 220.33984375 133.366875 220.33984375 134.046875 220.33984375 C135.46728516 222.03637695 135.46728516 222.03637695 137.0859375 224.390625 C137.95605469 225.65616211 137.95605469 225.65616211 138.84375 226.94726562 C139.44703125 227.83994141 140.0503125 228.73261719 140.671875 229.65234375 C141.58839844 230.97395508 141.58839844 230.97395508 142.5234375 232.32226562 C143.3896875 233.59360352 143.3896875 233.59360352 144.2734375 234.890625 C144.80533691 235.67091064 145.33723633 236.45119629 145.88525391 237.25512695 C147.046875 239.33984375 147.046875 239.33984375 147.046875 242.33984375 C147.706875 242.33984375 148.366875 242.33984375 149.046875 242.33984375 C163.60056784 268.3784967 173.30534176 295.50341704 176.046875 325.33984375 C176.15644531 326.17257812 176.26601563 327.0053125 176.37890625 327.86328125 C182.22546274 373.54437597 166.67186919 420.12531036 141.234375 457.58984375 C140.84902588 458.16371826 140.46367676 458.73759277 140.06665039 459.32885742 C139.11307996 460.70417095 138.08587184 462.02787217 137.046875 463.33984375 C136.386875 463.33984375 135.726875 463.33984375 135.046875 463.33984375 C134.78519531 464.07074219 134.52351563 464.80164063 134.25390625 465.5546875 C131.4482959 472.02847449 126.61627992 477.12515895 121.046875 481.33984375 C120.44875 482.10296875 119.850625 482.86609375 119.234375 483.65234375 C116.20821136 487.37020193 112.73309208 490.28818673 109.046875 493.33984375 C107.57927734 494.56380859 107.57927734 494.56380859 106.08203125 495.8125 C84.15985959 513.74733056 59.21229997 526.48958499 32.046875 534.33984375 C30.81453125 534.70207031 29.5821875 535.06429687 28.3125 535.4375 C-4.51865936 544.39454866 -39.2640699 543.26007743 -71.953125 534.33984375 C-72.99774902 534.06551514 -72.99774902 534.06551514 -74.06347656 533.78564453 C-99.64898478 527.03148922 -122.52644003 514.20868855 -143.1484375 497.75 C-144.69598289 496.54077081 -146.31901297 495.42925177 -147.953125 494.33984375 C-147.953125 493.67984375 -147.953125 493.01984375 -147.953125 492.33984375 C-148.54222656 492.07816406 -149.13132812 491.81648438 -149.73828125 491.546875 C-152.07097934 490.27561625 -153.55666868 488.93753844 -155.390625 487.02734375 C-156.00035156 486.39828125 -156.61007813 485.76921875 -157.23828125 485.12109375 C-157.80417969 484.53328125 -158.37007812 483.94546875 -158.953125 483.33984375 C-159.736875 482.57671875 -160.520625 481.81359375 -161.328125 481.02734375 C-184.56343643 457.23881062 -200.32197065 429.05778855 -209.953125 397.33984375 C-210.41138672 395.88771484 -210.41138672 395.88771484 -210.87890625 394.40625 C-224.1625169 349.65070027 -217.78857786 299.81943312 -195.73535156 259.09082031 C-193.27922008 254.74942 -190.64164208 250.54033878 -187.953125 246.33984375 C-187.31246094 245.28925781 -186.67179687 244.23867188 -186.01171875 243.15625 C-181.41361935 235.67813153 -177.62700288 230.1812865 -168.953125 227.33984375 C-163.68000783 226.78477878 -160.43406162 227.51490544 -155.953125 230.33984375 C-149.64572499 235.78714376 -148.77321649 240.67238334 -148.140625 248.71484375 C-146.91168363 261.45020245 -143.33608851 272.72811904 -135.953125 283.33984375 C-135.293125 284.28859375 -134.633125 285.23734375 -133.953125 286.21484375 C-131.56208593 288.75532276 -128.85621712 290.42644212 -125.953125 292.33984375 C-125.953125 292.99984375 -125.953125 293.65984375 -125.953125 294.33984375 C-125.07914062 294.62601562 -124.20515625 294.9121875 -123.3046875 295.20703125 C-121.24455431 295.90334666 -119.19432706 296.63103512 -117.1640625 297.41015625 C-106.505274 301.3741685 -96.53135155 301.84193697 -85.953125 297.33984375 C-73.98135438 291.39896509 -65.92504603 282.7011084 -61.30859375 270.08984375 C-59.81489378 265.41319788 -59.4504061 261.10269463 -59.515625 256.21484375 C-59.52464844 255.38718506 -59.53367188 254.55952637 -59.54296875 253.70678711 C-60.06115786 235.0249902 -69.16941634 217.204544 -76.81103516 200.45996094 C-80.99687182 191.22862921 -84.11669062 181.87499755 -86.765625 172.08984375 C-87.05542236 171.02580322 -87.34521973 169.9617627 -87.64379883 168.86547852 C-90.75562127 156.97822513 -92.32815411 145.44199343 -92.265625 133.15234375 C-92.25998535 131.97687988 -92.2543457 130.80141602 -92.24853516 129.59033203 C-91.62050611 84.16704313 -64.1857688 46.68623572 -32.796875 15.9921875 C-28.08138432 11.46191496 -23.22301118 7.22338551 -17.953125 3.33984375 C-17.32277344 2.86933594 -16.69242188 2.39882813 -16.04296875 1.9140625 C-11.02044497 -1.41521864 -5.65272531 -1.91062115 0 0 Z M-22.953125 54.33984375 C-45.44362689 80.33296478 -60.11624961 108.05066931 -58.25048828 143.11035156 C-56.83825243 158.44783581 -50.89349535 173.03143037 -44.90820312 187.08105469 C-43.45355101 190.52135156 -42.07872888 193.99236383 -40.703125 197.46484375 C-38.81485559 202.2047004 -38.81485559 202.2047004 -36.87109375 206.921875 C-26.27293807 232.38278287 -20.86998017 260.03518289 -31.203125 286.46484375 C-33.55200969 291.79088623 -36.38703775 296.77184172 -39.40234375 301.74609375 C-40.96132566 304.23744722 -40.96132566 304.23744722 -41.97265625 306.62109375 C-42.953125 308.33984375 -42.953125 308.33984375 -45.953125 309.33984375 C-45.953125 309.99984375 -45.953125 310.65984375 -45.953125 311.33984375 C-46.943125 311.66984375 -47.933125 311.99984375 -48.953125 312.33984375 C-48.953125 312.99984375 -48.953125 313.65984375 -48.953125 314.33984375 C-49.530625 314.6028125 -50.108125 314.86578125 -50.703125 315.13671875 C-53.07158444 316.40318665 -54.8996544 317.86306165 -56.953125 319.58984375 C-71.43148726 331.02012975 -89.72133889 335.63040838 -107.953125 334.33984375 C-127.64630454 331.9630807 -147.15594378 324.21559215 -159.953125 308.33984375 C-168.41421563 296.86096413 -168.41421563 296.86096413 -170.953125 291.33984375 C-171.613125 291.33984375 -172.273125 291.33984375 -172.953125 291.33984375 C-179.11987454 306.67058981 -182.73544821 321.82989621 -182.953125 338.33984375 C-182.98019531 339.38398438 -183.00726563 340.428125 -183.03515625 341.50390625 C-183.07889489 344.45427627 -183.02543954 347.39017188 -182.953125 350.33984375 C-182.95957031 351.43167969 -182.96601563 352.52351563 -182.97265625 353.6484375 C-182.12189795 391.93256103 -163.18692594 428.0549223 -138.140625 455.90234375 C-137.68461914 456.41531006 -137.22861328 456.92827637 -136.75878906 457.45678711 C-134.31700649 460.12754303 -132.175219 461.76862038 -128.953125 463.33984375 C-128.458125 464.82484375 -128.458125 464.82484375 -127.953125 466.33984375 C-125.93744921 468.2359468 -125.93744921 468.2359468 -123.515625 470.02734375 C-122.71253906 470.64996094 -121.90945312 471.27257812 -121.08203125 471.9140625 C-119.10320709 473.52532976 -119.10320709 473.52532976 -116.953125 473.33984375 C-116.953125 473.99984375 -116.953125 474.65984375 -116.953125 475.33984375 C-115.1634139 476.76296168 -115.1634139 476.76296168 -112.81640625 478.16796875 C-111.93557373 478.71767334 -111.05474121 479.26737793 -110.1472168 479.83374023 C-109.1962915 480.41325439 -108.24536621 480.99276855 -107.265625 481.58984375 C-106.30116455 482.18031494 -105.3367041 482.77078613 -104.34301758 483.37915039 C-97.38723958 487.58479342 -90.51390452 491.32298099 -82.953125 494.33984375 C-82.32599609 494.59314453 -81.69886719 494.84644531 -81.05273438 495.10742188 C-61.36649881 503.00093662 -41.39300973 506.9511173 -20.203125 506.77734375 C-19.42141937 506.7746347 -18.63971375 506.77192566 -17.83432007 506.76913452 C-5.17545117 506.70286954 6.78759967 505.67843797 19.046875 502.33984375 C19.82562988 502.13665527 20.60438477 501.9334668 21.40673828 501.72412109 C29.56600436 499.57428347 37.48891576 497.13707931 45.046875 493.33984375 C46.28212627 492.74520838 47.51785089 492.15155586 48.75390625 491.55859375 C56.8684709 487.62668502 64.55211592 483.37594177 72.046875 478.33984375 C73.28244141 477.5509375 73.28244141 477.5509375 74.54296875 476.74609375 C78.89099598 473.94736358 82.46666801 471.10365109 86.046875 467.33984375 C87.32967488 466.20474364 88.62222152 465.08060744 89.921875 463.96484375 C95.92432485 458.74090713 101.19086744 453.46152023 105.78515625 446.94140625 C107.046875 445.33984375 107.046875 445.33984375 109.046875 444.33984375 C109.046875 443.34984375 109.046875 442.35984375 109.046875 441.33984375 C109.706875 441.33984375 110.366875 441.33984375 111.046875 441.33984375 C116.35916204 435.02808002 120.32481618 427.66135238 124.046875 420.33984375 C124.38477051 419.69466797 124.72266602 419.04949219 125.07080078 418.38476562 C143.34518094 383.27340684 148.85430806 340.95623112 138.046875 302.58984375 C137.38782562 300.50408822 136.72203537 298.42043999 136.046875 296.33984375 C135.71236328 295.08107422 135.71236328 295.08107422 135.37109375 293.796875 C133.26758264 285.88612463 129.68049861 278.63779257 126.046875 271.33984375 C125.72525391 270.69257324 125.40363281 270.04530273 125.07226562 269.37841797 C120.75253526 260.77560165 115.96794453 252.96187507 110.046875 245.33984375 C109.1840159 244.21030706 108.32208072 243.08006415 107.4609375 241.94921875 C99.72334898 231.74047041 99.72334898 231.74047041 91.046875 222.33984375 C86.45288692 217.82818521 82.07114026 213.37017533 78.046875 208.33984375 C76.39153505 206.99247402 74.72674727 205.65650039 73.046875 204.33984375 C72.716875 203.67984375 72.386875 203.01984375 72.046875 202.33984375 C71.386875 202.33984375 70.726875 202.33984375 70.046875 202.33984375 C69.78801514 201.75428711 69.52915527 201.16873047 69.26245117 200.56542969 C67.95465776 198.17100415 66.54951399 196.62891046 64.59765625 194.73046875 C63.91380859 194.05757812 63.22996094 193.3846875 62.52539062 192.69140625 C61.45321289 191.65113281 61.45321289 191.65113281 60.359375 190.58984375 C47.56232072 178.11301233 47.56232072 178.11301233 43.046875 171.33984375 C42.386875 171.33984375 41.726875 171.33984375 41.046875 171.33984375 C40.80582031 170.78554687 40.56476563 170.23125 40.31640625 169.66015625 C38.76771185 166.8296194 36.85394928 164.65009931 34.734375 162.21484375 C28.52743053 154.94922463 23.02748695 147.1842084 17.50634766 139.39257812 C16.5595894 138.06097167 15.6064937 136.73383979 14.64599609 135.41210938 C11.64189341 131.27267692 9.15240145 127.08205065 6.765625 122.5703125 C5.5458673 120.27772246 4.30195411 118.01970078 3.015625 115.765625 C-1.84819469 107.10337304 -5.75804744 98.23665351 -9.328125 88.96484375 C-9.74481445 87.88388428 -10.16150391 86.8029248 -10.59082031 85.68920898 C-13.79052215 77.18340012 -16.45606959 68.59344555 -18.140625 59.65234375 C-18.29917969 58.82347656 -18.45773438 57.99460938 -18.62109375 57.140625 C-18.73066406 56.54636719 -18.84023437 55.95210937 -18.953125 55.33984375 C-20.933125 54.84484375 -20.933125 54.84484375 -22.953125 54.33984375 Z " fill="#1A8C83" transform="translate(243.953125,15.66015625)"/>
<path d="M0 0 C2.10588955 3.46852397 2.10588955 3.46852397 1.63037109 5.85522461 C1.42234863 6.56300049 1.21432617 7.27077637 1 8 C0.63559982 17.62610421 1.07344506 27.31287151 1.375 36.9375 C1.4059375 38.19884766 1.436875 39.46019531 1.46875 40.75976562 C1.66208235 46.87229017 2.02275315 52.21176932 4 58 C4.125 61.4375 4.125 61.4375 4 64 C1.87531668 60.37608126 1.21931999 56.72648497 0.4375 52.625 C0.18871094 51.33851563 -0.06007812 50.05203125 -0.31640625 48.7265625 C-0.54199219 47.49679688 -0.76757812 46.26703125 -1 45 C-1.17563477 44.05833984 -1.35126953 43.11667969 -1.53222656 42.14648438 C-2.3357321 36.74169349 -2.18452907 31.32961885 -2.1875 25.875 C-2.19974609 24.71484375 -2.21199219 23.5546875 -2.22460938 22.359375 C-2.23744554 14.70902222 -1.51199745 7.49916468 0 0 Z " fill="#55A099" transform="translate(154,123)"/>
<path d="M0 0 C0 0.66 0 1.32 0 2 C-17.90228028 5.16754406 -36.08040823 4.91290897 -54 2 C-54 1.67 -54 1.34 -54 1 C-52.70376709 1.01047363 -51.40753418 1.02094727 -50.07202148 1.03173828 C-45.24327375 1.06805509 -40.41453801 1.09094296 -35.58569336 1.10986328 C-33.49940966 1.11989427 -31.41313992 1.13352226 -29.3269043 1.15087891 C-26.32076562 1.17525494 -23.31481355 1.18651236 -20.30859375 1.1953125 C-19.38227646 1.20563507 -18.45595917 1.21595764 -17.50157166 1.22659302 C-13.47740842 1.22728351 -9.90291957 1.12673009 -6.04321289 -0.07470703 C-3 -1 -3 -1 0 0 Z " fill="#74B5AF" transform="translate(251,553)"/>
<path d="M0 0 C1.40150634 2.69351408 2.54901129 5.3653745 3.55078125 8.23046875 C3.83501953 9.02976807 4.11925781 9.82906738 4.41210938 10.65258789 C4.70923828 11.48910889 5.00636719 12.32562988 5.3125 13.1875 C7.22862917 18.52391974 9.1255977 23.65105629 12 28.5625 C12.66 29.696875 13.32 30.83125 14 32 C13.67 32.66 13.34 33.32 13 34 C11.68 33.67 10.36 33.34 9 33 C9 30.66666667 9 28.33333333 9 26 C7.68 25.67 6.36 25.34 5 25 C5.33 23.02 5.66 21.04 6 19 C5.34 18.67 4.68 18.34 4 18 C1 14.42307692 1 14.42307692 1 12 C0.34 11.67 -0.32 11.34 -1 11 C-2.19150921 6.63113288 -2.021829 4.04365799 0 0 Z " fill="#4B9B93" transform="translate(67,403)"/>
<path d="M0 0 C0.66 0 1.32 0 2 0 C2.02945031 3.31248078 2.04694801 6.62492711 2.0625 9.9375 C2.07087891 10.86369141 2.07925781 11.78988281 2.08789062 12.74414062 C2.10836241 18.57859997 1.73245533 24.21617936 1 30 C0.93039062 30.89332031 0.86078125 31.78664063 0.7890625 32.70703125 C0.73492187 33.40183594 0.68078125 34.09664063 0.625 34.8125 C0.57601563 35.52019531 0.52703125 36.22789062 0.4765625 36.95703125 C-0.11955394 39.51251403 -1.32746432 41.00995087 -3 43 C-2.85621657 41.02068336 -2.70985226 39.04155416 -2.5625 37.0625 C-2.48128906 35.96035156 -2.40007812 34.85820312 -2.31640625 33.72265625 C-2.0893591 31.05134839 -1.81769917 28.4099519 -1.5 25.75 C-0.90156269 20.48922753 -0.66197215 15.22547497 -0.4375 9.9375 C-0.39431641 8.97650391 -0.35113281 8.01550781 -0.30664062 7.02539062 C-0.20178868 4.68369723 -0.09962212 2.34192071 0 0 Z " fill="#33877E" transform="translate(387,348)"/>
<path d="M0 0 C1.33917261 0.30903983 2.67088318 0.65023242 4 1 C7.74921428 1.6025523 11.19590849 2 15 2 C15.66 2.33 16.32 2.66 17 3 C18.4465242 3.15067214 19.8987934 3.24861036 21.3515625 3.31640625 C22.62773437 3.37924805 22.62773437 3.37924805 23.9296875 3.44335938 C24.81914062 3.48267578 25.70859375 3.52199219 26.625 3.5625 C27.97078125 3.62727539 27.97078125 3.62727539 29.34375 3.69335938 C31.56234283 3.79956861 33.7810488 3.90161194 36 4 C36 4.33 36 4.66 36 5 C27.10636992 7.01610627 18.26091047 6.27095087 9.375 4.625 C8.68817139 4.49899414 8.00134277 4.37298828 7.29370117 4.24316406 C3.96524214 3.57738924 1.86429338 2.90952892 -1 1 C-0.67 0.67 -0.34 0.34 0 0 Z " fill="#67B3A6" transform="translate(118,345)"/>
<path d="M0 0 C0.33 0.66 0.66 1.32 1 2 C1.66 2 2.32 2 3 2 C4.31626692 5.61973402 5 8.09567131 5 12 C5.66 12 6.32 12 7 12 C8.905247 17.10334017 10.42589023 21.46342706 10 27 C10.66 27.33 11.32 27.66 12 28 C11.67 28.99 11.34 29.98 11 31 C0 9.78571429 0 9.78571429 0 0 Z " fill="#5AA49D" transform="translate(158,188)"/>
<path d="M0 0 C0.66 0.99 1.32 1.98 2 3 C1.67 3.99 1.34 4.98 1 6 C1 7.32 1 8.64 1 10 C0.01 10.495 0.01 10.495 -1 11 C-2.05352843 13.30965848 -3.05719096 15.6429774 -4 18 C-4.66 18 -5.32 18 -6 18 C-6.33 20.64 -6.66 23.28 -7 26 C-7.66 26 -8.32 26 -9 26 C-8.37222955 21.42425094 -7.19537029 17.33993243 -5.625 13 C-5.20476563 11.824375 -4.78453125 10.64875 -4.3515625 9.4375 C-3.07060601 6.17957599 -1.61743912 3.10245633 0 0 Z " fill="#46988F" transform="translate(43,286)"/>
<path d="M0 0 C1.23381424 3.70144271 0.25258377 5.23043548 -1.1640625 8.7265625 C-2.51161807 12.39140988 -3.24753724 16.1757187 -4 20 C-4.66 20 -5.32 20 -6 20 C-6.1079859 17.56131832 -6.18726589 15.12740867 -6.25 12.6875 C-6.28351563 11.99720703 -6.31703125 11.30691406 -6.3515625 10.59570312 C-6.45057158 5.47198304 -6.45057158 5.47198304 -4.109375 3.01953125 C-2 2 -2 2 0 2 C0 1.34 0 0.68 0 0 Z " fill="#3B9186" transform="translate(192,112)"/>
<path d="M0 0 C1.38521718 2.77043436 1.14844505 4.5175536 0.25 7.4375 C-1.11612129 10.23804863 -2.69731964 11.92758767 -5 14 C-5.33 13.67 -5.66 13.34 -6 13 C-7.65 14.65 -9.3 16.3 -11 18 C-11.66 17.67 -12.32 17.34 -13 17 C-11.71937515 15.2925002 -10.38232443 13.62626404 -9 12 C-8.34 12 -7.68 12 -7 12 C-7 11.01 -7 10.02 -7 9 C-6.34 9 -5.68 9 -5 9 C-4.731875 8.2575 -4.46375 7.515 -4.1875 6.75 C-3.05770579 4.13363446 -1.79106798 2.19812889 0 0 Z " fill="#56A99F" transform="translate(360,448)"/>
<path d="M0 0 C0.33 0 0.66 0 1 0 C1.63789884 10.34813679 -0.16961632 19.15683532 -3 29 C-3.33 29 -3.66 29 -4 29 C-4 25.37 -4 21.74 -4 18 C-3.34 18 -2.68 18 -2 18 C-2.02320313 17.3709375 -2.04640625 16.741875 -2.0703125 16.09375 C-2.19184081 10.32983602 -1.63773706 5.52736258 0 0 Z " fill="#40968C" transform="translate(417,383)"/>
<path d="M0 0 C8.58 0 17.16 0 26 0 C24.68 1.32 23.36 2.64 22 4 C21.67 3.34 21.34 2.68 21 2 C14.4 2.33 7.8 2.66 1 3 C0.67 2.01 0.34 1.02 0 0 Z " fill="#1B7F78" transform="translate(211,523)"/>
<path d="M0 0 C-3.89095157 3.40458262 -8.11365765 6.24177968 -13 8 C-13.66 7.67 -14.32 7.34 -15 7 C-14.34 5.02 -13.68 3.04 -13 1 C-8.62426048 0.40667939 -4.42471556 -0.13827236 0 0 Z " fill="#389890" transform="translate(185,337)"/>
<path d="M0 0 C0.33 0 0.66 0 1 0 C1.06058594 0.84304688 1.12117187 1.68609375 1.18359375 2.5546875 C1.26738281 3.65039062 1.35117188 4.74609375 1.4375 5.875 C1.51871094 6.96554687 1.59992188 8.05609375 1.68359375 9.1796875 C1.83001703 11.94728971 1.83001703 11.94728971 3 14 C3.66 14 4.32 14 5 14 C5 14.66 5 15.32 5 16 C4.34 16.66 3.68 17.32 3 18 C2.19916172 20.05031372 1.54290981 22.12440501 0.87890625 24.22265625 C0.58886719 24.80917969 0.29882812 25.39570313 0 26 C-0.99 26.33 -1.98 26.66 -3 27 C-2.68289062 25.88625 -2.36578125 24.7725 -2.0390625 23.625 C-0.82319338 18.76152351 -0.55911855 13.99421565 -0.375 9 C-0.33632812 8.12988281 -0.29765625 7.25976562 -0.2578125 6.36328125 C-0.16459113 4.24249514 -0.08125864 2.12127815 0 0 Z " fill="#499A92" transform="translate(185,262)"/>
<path d="M0 0 C0.66 0.33 1.32 0.66 2 1 C1.91231752 2.5843317 1.80412671 4.16753567 1.6875 5.75 C1.62949219 6.63171875 1.57148438 7.5134375 1.51171875 8.421875 C1 11 1 11 -2 15 C-2.99 11.37 -3.98 7.74 -5 4 C-4.01 4 -3.02 4 -2 4 C-1.34 2.68 -0.68 1.36 0 0 Z " fill="#32918A" transform="translate(381,297)"/>
<path d="M0 0 C0.33 0 0.66 0 1 0 C1 10.23 1 20.46 1 31 C0.67 31 0.34 31 0 31 C-1.8180258 23.66296729 -2.53563594 16.56118646 -2 9 C-1.67 8.67 -1.34 8.34 -1 8 C-0.76924918 6.65252916 -0.58846937 5.29622435 -0.4375 3.9375 C-0.293125 2.638125 -0.14875 1.33875 0 0 Z " fill="#6EB4AC" transform="translate(61,344)"/>
<path d="M0 0 C0.17081364 4.44115477 -0.04601308 7.09202617 -2 11 C-2.44811137 13.35564596 -2.44811137 13.35564596 -2.625 15.75 C-2.69976562 16.54921875 -2.77453125 17.3484375 -2.8515625 18.171875 C-2.90054688 18.77515625 -2.94953125 19.3784375 -3 20 C-3.33 20 -3.66 20 -4 20 C-4.33 13.73 -4.66 7.46 -5 1 C-1 0 -1 0 0 0 Z " fill="#1A8177" transform="translate(190,257)"/>
<path d="M0 0 C0.55800293 0.06566162 1.11600586 0.13132324 1.69091797 0.19897461 C9.16033451 1.01746873 16.61760176 1.31734406 24.125 1.5625 C25.98898438 1.62727539 25.98898438 1.62727539 27.890625 1.69335938 C30.92699671 1.79846455 33.96343665 1.90061343 37 2 C37 2.33 37 2.66 37 3 C32.21284377 3.07415168 27.42602173 3.12860204 22.63842773 3.16479492 C21.00978777 3.17988243 19.38118844 3.20035506 17.75268555 3.22631836 C15.41184465 3.26270449 13.07154081 3.2797262 10.73046875 3.29296875 C9.63813179 3.31619453 9.63813179 3.31619453 8.52372742 3.33988953 C3.44615804 3.34158031 3.44615804 3.34158031 1.0168457 1.48168945 C0.51350708 0.74825317 0.51350708 0.74825317 0 0 Z " fill="#7DC3BE" transform="translate(196,520)"/>
<path d="M0 0 C0.33 0.66 0.66 1.32 1 2 C1.66 2.33 2.32 2.66 3 3 C2.34 3 1.68 3 1 3 C0.34 4.32 -0.32 5.64 -1 7 C-2.36125 6.938125 -2.36125 6.938125 -3.75 6.875 C-6.8782046 6.99531556 -8.38614006 7.3914708 -11 9 C-11.66 8.34 -12.32 7.68 -13 7 C-8.71 4.69 -4.42 2.38 0 0 Z " fill="#459F95" transform="translate(312,496)"/>
<path d="M0 0 C1.32 0.33 2.64 0.66 4 1 C4 1.99 4 2.98 4 4 C5.32 3.67 6.64 3.34 8 3 C9.15837626 7.05431692 8.83691257 9.21812119 7 13 C0 4.25 0 4.25 0 0 Z " fill="#449F97" transform="translate(244,126)"/>
<path d="M0 0 C0.66 0.99 1.32 1.98 2 3 C-0.97088618 6.99926986 -4.12948725 9.92118304 -8 13 C-8 10.03799136 -7.93656229 7.80968687 -7 5 C-4.5625 3.875 -4.5625 3.875 -2 3 C-1.34 2.01 -0.68 1.02 0 0 Z " fill="#409B94" transform="translate(363,494)"/>
<path d="M0 0 C0.33 0 0.66 0 1 0 C1.06058594 1.24136719 1.12117188 2.48273438 1.18359375 3.76171875 C1.26803623 5.40365577 1.35268236 7.04558232 1.4375 8.6875 C1.47681641 9.50412109 1.51613281 10.32074219 1.55664062 11.16210938 C1.7701321 15.21844734 2.19144923 19.0149998 3 23 C2.73128549 25.34165499 2.40961596 27.67884289 2 30 C1.34 30 0.68 30 0 30 C0 20.1 0 10.2 0 0 Z " fill="#7EB5AE" transform="translate(27,344)"/>
<path d="M0 0 C0.66 0.33 1.32 0.66 2 1 C1.67 9.25 1.34 17.5 1 26 C0.67 26 0.34 26 0 26 C-0.83646801 20.14472395 -1.10922375 14.40557734 -1.125 8.5 C-1.12951172 7.78134766 -1.13402344 7.06269531 -1.13867188 6.32226562 C-1.1237479 1.1237479 -1.1237479 1.1237479 0 0 Z " fill="#15857D" transform="translate(390,349)"/>
<path d="M0 0 C3.21419439 2.46700692 3.95160776 3.71580558 4.64453125 7.78515625 C4.71980365 9.2100496 4.77526739 10.63610569 4.8125 12.0625 C4.85052734 12.78244141 4.88855469 13.50238281 4.92773438 14.24414062 C5.06852775 17.47040583 5.02907327 19.9127802 4 23 C3.87882813 22.43152344 3.75765625 21.86304688 3.6328125 21.27734375 C2.83149813 17.58513368 1.99605245 13.98728012 0.875 10.375 C-0.05507821 6.78755548 -0.15060863 3.68991145 0 0 Z " fill="#188378" transform="translate(155,167)"/>
<path d="M0 0 C0.103125 0.763125 0.20625 1.52625 0.3125 2.3125 C1.05600892 5.21894395 1.84858032 6.03566029 4 8 C4 8.66 4 9.32 4 10 C-0.60139641 8.51131293 -3.50227094 6.25370145 -7 3 C-7 2.34 -7 1.68 -7 1 C-4 0 -4 0 0 0 Z " fill="#2B8C85" transform="translate(103,507)"/>
<path d="M0 0 C1.0013988 3.00419641 1.51421457 5.87709365 2 9 C2.66 9 3.32 9 4 9 C4 10.65 4 12.3 4 14 C0.41193683 10.61127367 -2.45684799 7.23858668 -5 3 C-5 2.34 -5 1.68 -5 1 C-3 0 -3 0 0 0 Z " fill="#34908A" transform="translate(358,258)"/>
<path d="M0 0 C3.80447492 0.59464902 6.19227643 2.14482211 9.32421875 4.36328125 C9.65421875 5.02328125 9.98421875 5.68328125 10.32421875 6.36328125 C7.84921875 5.86828125 7.84921875 5.86828125 5.32421875 5.36328125 C4.99421875 4.37328125 4.66421875 3.38328125 4.32421875 2.36328125 C-0.62578125 2.69328125 -5.57578125 3.02328125 -10.67578125 3.36328125 C-6.3136666 0.09169526 -5.09499514 -0.16000811 0 0 Z " fill="#79B4AE" transform="translate(239.67578125,14.63671875)"/>
<path d="M0 0 C4.29 0.33 8.58 0.66 13 1 C13 1.66 13 2.32 13 3 C13.66 3.33 14.32 3.66 15 4 C9.39 3.67 3.78 3.34 -2 3 C-1.34 2.01 -0.68 1.02 0 0 Z " fill="#3E958B" transform="translate(183,518)"/>
<path d="M0 0 C0.66 0 1.32 0 2 0 C2.33 2.31 2.66 4.62 3 7 C0.525 8.485 0.525 8.485 -2 10 C-3.125 5.25 -3.125 5.25 -2 3 C-1.34 3 -0.68 3 0 3 C0 2.01 0 1.02 0 0 Z M-6 10 C-5.34 10 -4.68 10 -4 10 C-4.33 10.99 -4.66 11.98 -5 13 C-5.33 12.01 -5.66 11.02 -6 10 Z " fill="#158D84" transform="translate(180,294)"/>
<path d="M0 0 C1.70884005 1.62339805 3.37446717 3.29319053 5 5 C5 5.66 5 6.32 5 7 C5.66 7 6.32 7 7 7 C8.6875 8.8125 8.6875 8.8125 10 11 C9.67 11.99 9.34 12.98 9 14 C7.68 13.34 6.36 12.68 5 12 C5 10.68 5 9.36 5 8 C4.01 8 3.02 8 2 8 C0.23537317 4.91190305 0 3.76687864 0 0 Z " fill="#4BA298" transform="translate(371,229)"/>
<path d="M0 0 C4.20240011 3.71750779 6.99782679 8.31660979 10 13 C7.23723823 12.47731534 4.6739124 11.89130413 2 11 C2 8.69 2 6.38 2 4 C1.34 4 0.68 4 0 4 C0 2.68 0 1.36 0 0 Z " fill="#409B8F" transform="translate(89,451)"/>
<path d="M0 0 C1.32 0 2.64 0 4 0 C4 0.66 4 1.32 4 2 C4.66 2 5.32 2 6 2 C6 1.34 6 0.68 6 0 C7.0209375 0.433125 7.0209375 0.433125 8.0625 0.875 C11.32893093 2.12597355 14.62846123 3.07447955 18 4 C18 4.33 18 4.66 18 5 C10.57544389 6.78739314 6.45478287 4.82260707 0 1 C0 0.67 0 0.34 0 0 Z " fill="#439A92" transform="translate(138,536)"/>
<path d="M0 0 C3.57040303 0.65902299 6.17732255 2.16229158 9.25 4.0625 C10.14203125 4.61035156 11.0340625 5.15820312 11.953125 5.72265625 C12.96632812 6.35494141 12.96632812 6.35494141 14 7 C10.27459191 8.2418027 9.50405535 7.54830353 6 6 C4.00379834 5.32204472 2.00461299 4.65266469 0 4 C0 2.68 0 1.36 0 0 Z " fill="#4AA197" transform="translate(129,493)"/>
<path d="M0 0 C3 3 3 3 3.328125 5.0078125 C3.11111111 10.88888889 3.11111111 10.88888889 2 12 C1.76572222 14.01594582 1.58663876 16.038474 1.4375 18.0625 C1.35371094 19.16722656 1.26992188 20.27195312 1.18359375 21.41015625 C1.12300781 22.26480469 1.06242187 23.11945313 1 24 C0.67 24 0.34 24 0 24 C0 16.08 0 8.16 0 0 Z " fill="#178077" transform="translate(58,341)"/>
<path d="M0 0 C1.32 0.66 2.64 1.32 4 2 C3.39196574 5.12308506 2.37985958 7.19251662 0.5 9.75 C-0.16515625 10.67039062 -0.16515625 10.67039062 -0.84375 11.609375 C-1.2253125 12.06828125 -1.606875 12.5271875 -2 13 C-2.33 13 -2.66 13 -3 13 C-3 11.02 -3 9.04 -3 7 C-2.34 6.67 -1.68 6.34 -1 6 C-0.34227572 2.97065509 -0.34227572 2.97065509 0 0 Z " fill="#479B93" transform="translate(204,309)"/>
<path d="M0 0 C0.33 2.97 0.66 5.94 1 9 C-5.75 3.375 -5.75 3.375 -8 0 C-4.63458162 -1.08174162 -3.70152678 -0.92538169 0 0 Z M-3 0 C-2 2 -2 2 -2 2 Z " fill="#50A8A0" transform="translate(333,228)"/>
<path d="M0 0 C1.32 0.66 2.64 1.32 4 2 C1.03 6.95 1.03 6.95 -2 12 C-2.33 11.01 -2.66 10.02 -3 9 C-3.99 9.33 -4.98 9.66 -6 10 C-5.34 8.68 -4.68 7.36 -4 6 C-2.68 6 -1.36 6 0 6 C-0.2784375 4.7934375 -0.2784375 4.7934375 -0.5625 3.5625 C-0.706875 2.716875 -0.85125 1.87125 -1 1 C-0.67 0.67 -0.34 0.34 0 0 Z " fill="#34968F" transform="translate(392,454)"/>
<path d="M0 0 C4.97699664 4.97699664 4.04559275 12.50248728 4.0625 19.0625 C4.04669585 20.70838931 4.02768522 22.35426767 4 24 C3.67 24 3.34 24 3 24 C2.49387936 21.1259578 1.99493459 18.25097127 1.5 15.375 C1.35691406 14.56675781 1.21382812 13.75851562 1.06640625 12.92578125 C0.32123749 8.56122136 -0.17272306 4.44761871 0 0 Z " fill="#63A69F" transform="translate(28,378)"/>
<path d="M0 0 C2.48904468 2.48904468 2.35528113 3.55849404 2.6328125 7.0078125 C2.71660156 7.99394531 2.80039063 8.98007812 2.88671875 9.99609375 C2.96535156 11.02863281 3.04398437 12.06117188 3.125 13.125 C3.21136719 14.16527344 3.29773438 15.20554687 3.38671875 16.27734375 C3.59922379 18.85101589 3.80329156 21.42508017 4 24 C3.34 23.67 2.68 23.34 2 23 C1.54778956 20.52318728 1.20441799 18.12242396 0.9375 15.625 C0.34578059 10.23996103 0.34578059 10.23996103 -1 5 C-0.5625 2.3125 -0.5625 2.3125 0 0 Z " fill="#52A299" transform="translate(93,254)"/>
<path d="M0 0 C2.13586678 3.20380017 2.23132175 4.01939967 2.125 7.6875 C2.10695312 8.49574219 2.08890625 9.30398437 2.0703125 10.13671875 C2.03550781 11.05904297 2.03550781 11.05904297 2 12 C1.01 12.33 0.02 12.66 -1 13 C-0.67 11.35 -0.34 9.7 0 8 C-0.99 7.67 -1.98 7.34 -3 7 C-2.38722388 4.03824877 -1.74627478 2.61941217 0 0 Z " fill="#19827A" transform="translate(187,171)"/>
<path d="M0 0 C0.99 0 1.98 0 3 0 C2.74337755 1.44010481 2.46909179 2.8770687 2.1875 4.3125 C2.03667969 5.11300781 1.88585937 5.91351563 1.73046875 6.73828125 C0.92427764 9.23445587 -0.02052002 10.32422106 -2 12 C-3.125 10.3125 -3.125 10.3125 -4 8 C-3.125 5.25 -3.125 5.25 -2 3 C-1.34 3 -0.68 3 0 3 C0 2.01 0 1.02 0 0 Z " fill="#18867C" transform="translate(164,98)"/>
<path d="M0 0 C-3.33590585 2.69188064 -5.68330875 3.61629411 -10 4 C-10.33 3.67 -10.66 3.34 -11 3 C-11.99 3.33 -12.98 3.66 -14 4 C-14.33 3.01 -14.66 2.02 -15 1 C-10.03926578 -0.32286246 -5.08888488 -0.08893197 0 0 Z " fill="#16877E" transform="translate(244,17)"/>
<path d="M0 0 C0.33 0 0.66 0 1 0 C2.81371916 15.43056453 2.81371916 15.43056453 -0.546875 20.19140625 C-1.02640625 20.78824219 -1.5059375 21.38507813 -2 22 C-1.46589137 14.64748331 -0.86859084 7.32097997 0 0 Z " fill="#52A39D" transform="translate(386,369)"/>
<path d="M0 0 C0.66 0 1.32 0 2 0 C2 0.99 2 1.98 2 3 C4.97 3.495 4.97 3.495 8 4 C8 4.33 8 4.66 8 5 C5.91952703 5.5321441 3.83547707 6.05031786 1.75 6.5625 C0.58984375 6.85253906 -0.5703125 7.14257812 -1.765625 7.44140625 C-4.72090983 7.95179964 -6.24434101 8.02996165 -9 7 C-8.34 7 -7.68 7 -7 7 C-7 6.34 -7 5.68 -7 5 C-5.02 4.67 -3.04 4.34 -1 4 C-0.67 2.68 -0.34 1.36 0 0 Z " fill="#54A39D" transform="translate(265,546)"/>
<path d="M0 0 C1.67110042 2.96178773 2.32682752 5.37071192 2.625 8.75 C2.69976562 9.54921875 2.77453125 10.3484375 2.8515625 11.171875 C2.92503906 12.07679688 2.92503906 12.07679688 3 13 C2.01 13.495 2.01 13.495 1 14 C1 13.34 1 12.68 1 12 C0.34 11.67 -0.32 11.34 -1 11 C-2.19150921 6.63113288 -2.021829 4.04365799 0 0 Z " fill="#389A8C" transform="translate(67,403)"/>
<path d="M0 0 C0.99 0 1.98 0 3 0 C2.46515599 5.34844008 0.53309233 9.35796103 -2 14 C-2.33 14 -2.66 14 -3 14 C-2.48594831 9.03083364 -1.76615118 4.70973649 0 0 Z " fill="#46998D" transform="translate(403,432)"/>
<path d="M0 0 C0.33 0 0.66 0 1 0 C1 5.61 1 11.22 1 17 C0.01 16.67 -0.98 16.34 -2 16 C-1.85764543 14.27054347 -1.71095618 12.54144346 -1.5625 10.8125 C-1.48128906 9.84957031 -1.40007813 8.88664062 -1.31640625 7.89453125 C-1.02333849 5.21350398 -0.57296246 2.6337014 0 0 Z " fill="#4E9E95" transform="translate(30,326)"/>
<path d="M0 0 C0.33 1.32 0.66 2.64 1 4 C1.66 4 2.32 4 3 4 C3 9.61 3 15.22 3 21 C2.67 21 2.34 21 2 21 C1.66034526 18.81347261 1.32857523 16.62571975 1 14.4375 C0.814375 13.21933594 0.62875 12.00117188 0.4375 10.74609375 C0.01444923 7.12372152 -0.07501425 3.64287954 0 0 Z " fill="#4EA496" transform="translate(384,327)"/>
<path d="M0 0 C0.99 0.33 1.98 0.66 3 1 C0.66153846 7.64615385 0.66153846 7.64615385 -2.6875 9.4375 C-3.450625 9.623125 -4.21375 9.80875 -5 10 C-3.66511872 6.40608886 -2.03977277 3.24509304 0 0 Z " fill="#489B93" transform="translate(56,262)"/>
<path d="M0 0 C0.33 1.32 0.66 2.64 1 4 C0.360625 4.433125 -0.27875 4.86625 -0.9375 5.3125 C-3.26746003 6.91239177 -3.26746003 6.91239177 -4 10 C-4.99 10 -5.98 10 -7 10 C-7 10.66 -7 11.32 -7 12 C-7.66 11.67 -8.32 11.34 -9 11 C-7.88037801 9.35050343 -6.75413155 7.70550162 -5.625 6.0625 C-4.99851562 5.14597656 -4.37203125 4.22945312 -3.7265625 3.28515625 C-2 1 -2 1 0 0 Z " fill="#61A99F" transform="translate(68,246)"/>
<path d="M0 0 C1.68054361 3.10423557 2.73989499 6.16498934 3.6875 9.5625 C3.95949219 10.51253906 4.23148437 11.46257812 4.51171875 12.44140625 C5 15 5 15 4 18 C3.67 16.68 3.34 15.36 3 14 C2.34 14 1.68 14 1 14 C0.05572225 9.68330172 -0.56054925 5.39450749 -1 1 C-0.67 0.67 -0.34 0.34 0 0 Z " fill="#65A9A1" transform="translate(258,67)"/>
<path d="M0 0 C5.27315333 0.4452885 10.01770224 1.08373163 15 3 C15 3.66 15 4.32 15 5 C15.66 5.33 16.32 5.66 17 6 C10.81839396 5.46246904 5.673142 3.45417612 0 1 C0 0.67 0 0.34 0 0 Z " fill="#6AABA4" transform="translate(151,542)"/>
<path d="M0 0 C2.99972349 3.78912441 5.47510809 7.88831832 8 12 C6.68 11.67 5.36 11.34 4 11 C4 10.34 4 9.68 4 9 C2.68 9 1.36 9 0 9 C0 6.03 0 3.06 0 0 Z " fill="#53A297" transform="translate(101,289)"/>
<path d="M0 0 C2.00720923 0.28674418 4.0085944 0.61866701 6 1 C6 1.66 6 2.32 6 3 C4.37373596 4.38232443 2.7074998 5.71937515 1 7 C0.01 6.34 -0.98 5.68 -2 5 C-1.125 1.125 -1.125 1.125 0 0 Z " fill="#33988F" transform="translate(195,321)"/>
<path d="M0 0 C0.7734375 0.2165625 0.7734375 0.2165625 1.5625 0.4375 C6.05230806 1.47360955 10.39324121 2 15 2 C15.66 2.66 16.32 3.32 17 4 C4.33029613 4.3690205 4.33029613 4.3690205 -1 2 C-0.67 1.34 -0.34 0.68 0 0 Z " fill="#4E9E97" transform="translate(118,345)"/>
<path d="M0 0 C1.32 0.33 2.64 0.66 4 1 C4 1.66 4 2.32 4 3 C5.32 2.67 6.64 2.34 8 2 C8 3.32 8 4.64 8 6 C8.30830925 8.00401011 8.63729412 10.00511766 9 12 C5.0963126 8.53005564 2.63411025 4.44775994 0 0 Z " fill="#5BA7A4" transform="translate(254,145)"/>
<path d="M0 0 C0.66 0.33 1.32 0.66 2 1 C1.67 1.99 1.34 2.98 1 4 C0.34 4 -0.32 4 -1 4 C-1.33 4.99 -1.66 5.98 -2 7 C-2.33 6.34 -2.66 5.68 -3 5 C-3.4125 5.515625 -3.825 6.03125 -4.25 6.5625 C-4.8275 7.036875 -5.405 7.51125 -6 8 C-7.32 7.67 -8.64 7.34 -10 7 C-6.7 4.69 -3.4 2.38 0 0 Z " fill="#50A09B" transform="translate(323,488)"/>
<path d="M0 0 C2.97069541 2.54631035 4.4775751 5.42230149 6 9 C5.67 9.66 5.34 10.32 5 11 C4.01 10.34 3.02 9.68 2 9 C2 8.34 2 7.68 2 7 C1.34 7 0.68 7 0 7 C-0.33 7.66 -0.66 8.32 -1 9 C-1.33 8.01 -1.66 7.02 -2 6 C-1.34 5.34 -0.68 4.68 0 4 C0 2.68 0 1.36 0 0 Z " fill="#4CA097" transform="translate(394,262)"/>
<path d="M0 0 C0.99 0.33 1.98 0.66 3 1 C3.33 3.97 3.66 6.94 4 10 C2.68 10 1.36 10 0 10 C0 6.7 0 3.4 0 0 Z " fill="#168377" transform="translate(91,261)"/>
<path d="M0 0 C0.66 0.33 1.32 0.66 2 1 C2 2.65 2 4.3 2 6 C1.34 6 0.68 6 0 6 C-0.33 6.99 -0.66 7.98 -1 9 C-2.32 7.02 -3.64 5.04 -5 3 C-4.34 3 -3.68 3 -3 3 C-2.67 2.34 -2.34 1.68 -2 1 C-1.67 1.33 -1.34 1.66 -1 2 C-0.67 1.34 -0.34 0.68 0 0 Z " fill="#359891" transform="translate(268,155)"/>
<path d="M0 0 C2.35171131 0.59861742 4.6859378 1.26924352 7 2 C7.33 2.66 7.66 3.32 8 4 C7.67 4.99 7.34 5.98 7 7 C7.66 7 8.32 7 9 7 C9 7.66 9 8.32 9 9 C9.66 9.33 10.32 9.66 11 10 C10.01 10 9.02 10 8 10 C8 9.34 8 8.68 8 8 C7.34 8 6.68 8 6 8 C4.4921875 6.25 4.4921875 6.25 2.875 4 C2.33617187 3.2575 1.79734375 2.515 1.2421875 1.75 C0.62730469 0.88375 0.62730469 0.88375 0 0 Z " fill="#5AA7A2" transform="translate(279,179)"/>
<path d="M0 0 C0.66 0.33 1.32 0.66 2 1 C-0.31 4.3 -2.62 7.6 -5 11 C-7 8 -7 8 -7 5 C-6.401875 4.731875 -5.80375 4.46375 -5.1875 4.1875 C-3.02775192 3.01506533 -1.64209744 1.80630718 0 0 Z " fill="#56A19C" transform="translate(212,79)"/>
<path d="M0 0 C0.33 0.66 0.66 1.32 1 2 C0.3409159 3.66967972 -0.32650839 5.33607955 -1 7 C-1 8.32 -1 9.64 -1 11 C-2.98 11.33 -4.96 11.66 -7 12 C-5.44298069 7.32894208 -2.91552627 3.91294315 0 0 Z " fill="#5EACA3" transform="translate(183,63)"/>
<path d="M0 0 C1.65 0.33 3.3 0.66 5 1 C4.34 2.32 3.68 3.64 3 5 C2.01 5 1.02 5 0 5 C-2.17032476 6.43990623 -2.17032476 6.43990623 -4 8 C-3.40072174 4.64404172 -2.15377564 2.62198774 0 0 Z " fill="#1A8679" transform="translate(218,26)"/>
<path d="M0 0 C1 2 1 2 1 5 C-0.02276532 7.9952413 -0.7448078 9.7448078 -3 12 C-3.75 9.375 -3.75 9.375 -4 6 C-2.0625 2.625 -2.0625 2.625 0 0 Z " fill="#3FA395" transform="translate(360,448)"/>
<path d="M0 0 C1.98146451 0.44829514 3.96014211 0.90892498 5.9375 1.375 C7.03964844 1.63023437 8.14179688 1.88546875 9.27734375 2.1484375 C10.17582031 2.42945313 11.07429687 2.71046875 12 3 C12.33 3.66 12.66 4.32 13 5 C10.36 5 7.72 5 5 5 C4.67 4.34 4.34 3.68 4 3 C1.97536745 2.34786708 1.97536745 2.34786708 0 2 C0 1.34 0 0.68 0 0 Z " fill="#4F9B92" transform="translate(124,313)"/>
<path d="M0 0 C1.10844919 3.32534757 0.84454356 5.62182575 0 9 C-0.99 8.67 -1.98 8.34 -3 8 C-3.33 5.69 -3.66 3.38 -4 1 C-2.68 0.67 -1.36 0.34 0 0 Z " fill="#2F8C83" transform="translate(182,237)"/>
<path d="M0 0 C0 0.66 0 1.32 0 2 C-6.435 2.495 -6.435 2.495 -13 3 C-8.83099908 0.22066605 -4.8978425 -1.63261417 0 0 Z " fill="#4FA197" transform="translate(251,553)"/>
<path d="M0 0 C0.33 1.32 0.66 2.64 1 4 C0.01 5.485 0.01 5.485 -1 7 C-0.34 7.33 0.32 7.66 1 8 C0.67 8.66 0.34 9.32 0 10 C-0.66 10 -1.32 10 -2 10 C-2.33 10.66 -2.66 11.32 -3 12 C-3.66 11.34 -4.32 10.68 -5 10 C-3.35 6.7 -1.7 3.4 0 0 Z " fill="#4C9D95" transform="translate(371,428)"/>
<path d="M0 0 C0.33 0.66 0.66 1.32 1 2 C1.66 2.33 2.32 2.66 3 3 C2.34 3 1.68 3 1 3 C1 3.66 1 4.32 1 5 C1.66 5.33 2.32 5.66 3 6 C2.01 6.33 1.02 6.66 0 7 C0 6.34 0 5.68 0 5 C-1.65 4.67 -3.3 4.34 -5 4 C-4.67 3.01 -4.34 2.02 -4 1 C-1.9375 0.3125 -1.9375 0.3125 0 0 Z " fill="#168378" transform="translate(160,313)"/>
<path d="M0 0 C3.7726764 0.53895377 5.68212991 1.99535358 8 5 C7.75 7.25 7.75 7.25 7 9 C5.5 7.625 5.5 7.625 4 6 C4 5.34 4 4.68 4 4 C3.01 3.67 2.02 3.34 1 3 C0.67 2.01 0.34 1.02 0 0 Z " fill="#4E9F97" transform="translate(336,239)"/>
<path d="M0 0 C2.97 0.99 5.94 1.98 9 3 C8.67 4.65 8.34 6.3 8 8 C6.85073734 7.04578192 5.70569459 6.08647955 4.5625 5.125 C3.92441406 4.59132812 3.28632813 4.05765625 2.62890625 3.5078125 C1 2 1 2 0 0 Z " fill="#56A9A5" transform="translate(299,201)"/>
<path d="M0 0 C2.27671486 2.16829987 4.27186149 4.36664608 6 7 C6 7.99 6 8.98 6 10 C3.525 9.01 3.525 9.01 1 8 C0.67 5.36 0.34 2.72 0 0 Z " fill="#5BA79C" transform="translate(282,126)"/>
<path d="M0 0 C0.99 0.33 1.98 0.66 3 1 C3.66 0.67 4.32 0.34 5 0 C5.25 7.5 5.25 7.5 3 12 C2.01 8.04 1.02 4.08 0 0 Z " fill="#4BA098" transform="translate(34,411)"/>
<path d="M0 0 C2 1.8125 2 1.8125 4 4 C4 4.99 4 5.98 4 7 C4.66 7 5.32 7 6 7 C6.33 8.32 6.66 9.64 7 11 C5.68 10.67 4.36 10.34 3 10 C2.67 8.02 2.34 6.04 2 4 C1.34 4 0.68 4 0 4 C0 2.68 0 1.36 0 0 Z " fill="#5DA79F" transform="translate(387,251)"/>
<path d="M0 0 C1.9375 0.625 1.9375 0.625 4 2 C4.75 5.125 4.75 5.125 5 8 C4.01 8.495 4.01 8.495 3 9 C0.53721199 6.53721199 0.00228745 4.29323018 -1 1 C-0.67 0.67 -0.34 0.34 0 0 Z " fill="#18857A" transform="translate(194,198)"/>
<path d="M0 0 C-0.66 1.32 -1.32 2.64 -2 4 C-3.32 3.67 -4.64 3.34 -6 3 C-6 2.34 -6 1.68 -6 1 C-6.99 0.67 -7.98 0.34 -9 0 C-5.67465243 -1.10844919 -3.37817425 -0.84454356 0 0 Z " fill="#30958C" transform="translate(285,513)"/>
<path d="M0 0 C0.99 0.99 1.98 1.98 3 3 C0.36 4.98 -2.28 6.96 -5 9 C-4.5206753 4.68607774 -3.2542015 2.83430453 0 0 Z " fill="#5CA49E" transform="translate(351,505)"/>
<path d="M0 0 C1.32 0.33 2.64 0.66 4 1 C2.68775452 4.93673644 1.08089673 7.22719294 -2 10 C-2.17942163 6.05272412 -2.09350689 3.4019487 0 0 Z " fill="#479A94" transform="translate(371,483)"/>
<path d="M0 0 C1.12894876 0.93274109 2.25300876 1.87140122 3.375 2.8125 C4.00148438 3.33457031 4.62796875 3.85664063 5.2734375 4.39453125 C7 6 7 6 9 9 C7.68 9 6.36 9 5 9 C5 8.01 5 7.02 5 6 C3.68 5.67 2.36 5.34 1 5 C0.67 3.35 0.34 1.7 0 0 Z " fill="#5DABA0" transform="translate(319,174)"/>
<path d="M0 0 C0.66 0 1.32 0 2 0 C1.835 0.928125 1.67 1.85625 1.5 2.8125 C0.92251612 5.95621353 0.92251612 5.95621353 1 9 C0.01 9.495 0.01 9.495 -1 10 C-2.25 3.375 -2.25 3.375 0 0 Z " fill="#158075" transform="translate(157,119)"/>
<path d="M0 0 C1.98 0.99 1.98 0.99 4 2 C4 3.98 4 5.96 4 8 C2.68 8.33 1.36 8.66 0 9 C0.185625 8.071875 0.37125 7.14375 0.5625 6.1875 C1.24123881 2.98656229 1.24123881 2.98656229 0 0 Z " fill="#14897B" transform="translate(274,117)"/>
<path d="M0 0 C2.69082872 0.17635452 5.32851446 0.61835921 8 1 C4.71536341 3.18975773 1.79303725 3.99806563 -2 5 C-1.125 1.125 -1.125 1.125 0 0 Z " fill="#54A59F" transform="translate(292,540)"/>
<path d="M0 0 C-0.11458693 1.43836751 -0.24209116 2.87570966 -0.375 4.3125 C-0.44460938 5.11300781 -0.51421875 5.91351563 -0.5859375 6.73828125 C-1 9 -1 9 -3 12 C-3 8.37 -3 4.74 -3 1 C-1 0 -1 0 0 0 Z " fill="#54A093" transform="translate(416,400)"/>
<path d="M0 0 C1.17539996 0.92652701 2.34010577 1.86663387 3.5 2.8125 C4.1496875 3.33457031 4.799375 3.85664063 5.46875 4.39453125 C7 6 7 6 7 9 C6.67 8.34 6.34 7.68 6 7 C3.47266765 6.34444881 3.47266765 6.34444881 1 6 C0.67 4.02 0.34 2.04 0 0 Z " fill="#4BA296" transform="translate(335,191)"/>
<path d="M0 0 C1.95582488 2.93373731 3.56224304 5.78216298 5 9 C4.67 9.66 4.34 10.32 4 11 C3.34 10.34 2.68 9.68 2 9 C1.01 9.495 1.01 9.495 0 10 C0 6.7 0 3.4 0 0 Z " fill="#58A59B" transform="translate(269,101)"/>
<path d="M0 0 C0 0.99 0 1.98 0 3 C-4.625 5.125 -4.625 5.125 -8 4 C-4.5 0 -4.5 0 0 0 Z " fill="#3A9C93" transform="translate(227,21)"/>
<path d="M0 0 C2.93200474 2.85276137 5.64315404 5.65079784 8 9 C5.03 8.505 5.03 8.505 2 8 C1.34 5.36 0.68 2.72 0 0 Z " fill="#63ABA3" transform="translate(99,464)"/>
<path d="M0 0 C2 1 2 1 3.125 4.0625 C3.41375 5.031875 3.7025 6.00125 4 7 C2.68 7 1.36 7 0 7 C-0.38133299 5.0085944 -0.71325582 3.00720923 -1 1 C-0.67 0.67 -0.34 0.34 0 0 Z " fill="#2C8C85" transform="translate(60,462)"/>
<path d="M0 0 C2.13586678 3.20380017 2.23132175 4.01939967 2.125 7.6875 C2.10695312 8.49574219 2.08890625 9.30398438 2.0703125 10.13671875 C2.04710937 10.75160156 2.02390625 11.36648438 2 12 C-0.34391133 8.48413301 -1.35906449 5.8979123 -0.5625 1.6875 C-0.376875 1.130625 -0.19125 0.57375 0 0 Z " fill="#1D8078" transform="translate(59,365)"/>
<path d="M0 0 C-0.33 1.65 -0.66 3.3 -1 5 C-2.98 4.34 -4.96 3.68 -7 3 C-4.49955934 -0.00052879 -4.2621484 0 0 0 Z M-4 5 C-2 6 -2 6 -2 6 Z " fill="#31938E" transform="translate(165,311)"/>
<path d="M0 0 C2.34914492 2.34914492 2.73140357 3.95679446 3.625 7.125 C3.88539063 8.03507813 4.14578125 8.94515625 4.4140625 9.8828125 C4.70410156 10.93082031 4.70410156 10.93082031 5 12 C4.01 11.67 3.02 11.34 2 11 C2 9.68 2 8.36 2 7 C1.34 7 0.68 7 0 7 C0 4.69 0 2.38 0 0 Z " fill="#5BABA3" transform="translate(193,188)"/>
<path d="M0 0 C0.66 0 1.32 0 2 0 C2.33 0.99 2.66 1.98 3 3 C2.01 4.485 2.01 4.485 1 6 C1.33 6.66 1.66 7.32 2 8 C-0.475 7.01 -0.475 7.01 -3 6 C-2.34 5.67 -1.68 5.34 -1 5 C-0.34444881 2.47266765 -0.34444881 2.47266765 0 0 Z " fill="#2F928B" transform="translate(121,520)"/>
<path d="M0 0 C0.66 0.33 1.32 0.66 2 1 C1.67 2.65 1.34 4.3 1 6 C0.34 5.67 -0.32 5.34 -1 5 C-0.67 3.35 -0.34 1.7 0 0 Z M-3 6 C-2.34 6 -1.68 6 -1 6 C-1.33 8.31 -1.66 10.62 -2 13 C-2.99 13 -3.98 13 -5 13 C-4.34 10.69 -3.68 8.38 -3 6 Z " fill="#19857A" transform="translate(375,422)"/>
<path d="M0 0 C0.66 0 1.32 0 2 0 C1.25 6.625 1.25 6.625 -1 10 C-2.15837626 5.94568308 -1.83691257 3.78187881 0 0 Z " fill="#5DA49B" transform="translate(67,311)"/>
<path d="M0 0 C0.99 0.495 0.99 0.495 2 1 C2 1.66 2 2.32 2 3 C2.99 3.33 3.98 3.66 5 4 C6.1875 6.0625 6.1875 6.0625 7 8 C5.35 8.33 3.7 8.66 2 9 C1.855625 8.2575 1.71125 7.515 1.5625 6.75 C1.09812508 4.47972261 0.58136431 2.24240521 0 0 Z " fill="#56A8A0" transform="translate(364,221)"/>
<path d="M0 0 C1.32 0.33 2.64 0.66 4 1 C4.33 3.64 4.66 6.28 5 9 C1.9083091 6.47043472 1.09068668 3.77545388 0 0 Z " fill="#5CA6A0" transform="translate(239,116)"/>
<path d="M0 0 C1.125 3.75 1.125 3.75 0 6 C-2.3140622 6.73075648 -4.64828869 7.40138258 -7 8 C-6.02133662 6.85373678 -5.04205413 5.70800212 -4.0625 4.5625 C-3.51722656 3.92441406 -2.97195312 3.28632812 -2.41015625 2.62890625 C-1.63204305 1.73008851 -0.84063472 0.84063472 0 0 Z " fill="#459890" transform="translate(205,38)"/>
<path d="M0 0 C2.97 0.495 2.97 0.495 6 1 C6.33 2.98 6.66 4.96 7 7 C5.82780457 6.21654285 4.66236332 5.42297164 3.5 4.625 C2.8503125 4.18414062 2.200625 3.74328125 1.53125 3.2890625 C1.0259375 2.86367188 0.520625 2.43828125 0 2 C0 1.34 0 0.68 0 0 Z " fill="#55A59F" transform="translate(83,496)"/>
<path d="M0 0 C0.66 0.33 1.32 0.66 2 1 C1.67 2.65 1.34 4.3 1 6 C-0.32 6.33 -1.64 6.66 -3 7 C-3 6.34 -3 5.68 -3 5 C-3.66 5 -4.32 5 -5 5 C-5 4.34 -5 3.68 -5 3 C-3.68 3 -2.36 3 -1 3 C-0.67 2.01 -0.34 1.02 0 0 Z " fill="#16867C" transform="translate(318,493)"/>
<path d="M0 0 C0.33 0 0.66 0 1 0 C1.98248524 4.0527516 2.08159574 7.83861737 2 12 C1.34 11.67 0.68 11.34 0 11 C-0.81309902 7.08234111 -1.37553268 3.82092412 0 0 Z " fill="#61A9A2" transform="translate(417,325)"/>
<path d="M0 0 C0.66 0 1.32 0 2 0 C2.66 2.31 3.32 4.62 4 7 C3.34 7 2.68 7 2 7 C1.67 8.32 1.34 9.64 1 11 C-0.17571451 7.32589215 -0.07366746 3.83070817 0 0 Z " fill="#59A49C" transform="translate(183,251)"/>
<path d="M0 0 C0.99 0 1.98 0 3 0 C2.67 2.31 2.34 4.62 2 7 C-0.31 7 -2.62 7 -5 7 C-4 5 -4 5 -1 4 C-0.26676204 1.98491642 -0.26676204 1.98491642 0 0 Z " fill="#138379" transform="translate(69,246)"/>
<path d="M0 0 C2.31 1.98 4.62 3.96 7 6 C3 7 3 7 1 6 C0.375 2.9375 0.375 2.9375 0 0 Z " fill="#4DA499" transform="translate(343,199)"/>
<path d="M0 0 C0.66 0 1.32 0 2 0 C2.33 1.32 2.66 2.64 3 4 C1.02 4.33 -0.96 4.66 -3 5 C-3 5.66 -3 6.32 -3 7 C-3.66 6.67 -4.32 6.34 -5 6 C-3.38405168 3.95880212 -1.7143618 1.95927063 0 0 Z " fill="#449A91" transform="translate(194,50)"/>
<path d="M0 0 C3.63 0 7.26 0 11 0 C11 0.33 11 0.66 11 1 C7.37 1.66 3.74 2.32 0 3 C0 2.01 0 1.02 0 0 Z " fill="#5CA69F" transform="translate(273,547)"/>
<path d="M0 0 C0.33 0.99 0.66 1.98 1 3 C-0.97746603 3.73080266 -2.98072489 4.39421747 -5 5 C-5.66 4.67 -6.32 4.34 -7 4 C-4.83989616 0.75984424 -3.8842653 0 0 0 Z " fill="#378F88" transform="translate(351,465)"/>
<path d="M0 0 C2.72426311 2.35277269 3.8141763 4.62496331 5 8 C4.01 8 3.02 8 2 8 C0 6 0 6 -0.125 2.875 C-0.08375 1.92625 -0.0425 0.9775 0 0 Z " fill="#5AB0A1" transform="translate(84,443)"/>
<path d="M0 0 C0.33 0 0.66 0 1 0 C1.125 5.75 1.125 5.75 0 8 C-0.66 8 -1.32 8 -2 8 C-2.33 6.35 -2.66 4.7 -3 3 C-2.01 2.67 -1.02 2.34 0 2 C0 1.34 0 0.68 0 0 Z " fill="#2B857A" transform="translate(408,422)"/>
<path d="M0 0 C1.42944945 2.35438733 2.08661261 3.48032433 1.625 6.25 C1.41875 6.8275 1.2125 7.405 1 8 C-0.65 6.02 -2.3 4.04 -4 2 C-2.68 2 -1.36 2 0 2 C0 1.34 0 0.68 0 0 Z " fill="#53A9A6" transform="translate(91,325)"/>
<path d="M0 0 C0.474375 0.66 0.94875 1.32 1.4375 2 C2.2109375 2.99 2.2109375 2.99 3 4 C3.33 4 3.66 4 4 4 C4 5.65 4 7.3 4 9 C-0.875 4.375 -0.875 4.375 -2 1 C-1.34 0.67 -0.68 0.34 0 0 Z " fill="#61A8A2" transform="translate(358,263)"/>
<path d="M0 0 C0.66 0 1.32 0 2 0 C3.6875 1.8125 3.6875 1.8125 5 4 C4.67 4.99 4.34 5.98 4 7 C2.68 6.34 1.36 5.68 0 5 C0 3.35 0 1.7 0 0 Z " fill="#56AC9F" transform="translate(376,236)"/>
<path d="M0 0 C0.33 0 0.66 0 1 0 C1.28571429 7.42857143 1.28571429 7.42857143 -1 11 C-1.33 10.67 -1.66 10.34 -2 10 C-1.61140641 6.50265772 -1.11403913 3.34211739 0 0 Z " fill="#4FA399" transform="translate(157,112)"/>
<path d="M0 0 C2.31 0.33 4.62 0.66 7 1 C5.35 2.32 3.7 3.64 2 5 C1.34 4.67 0.68 4.34 0 4 C0 2.68 0 1.36 0 0 Z " fill="#429C95" transform="translate(323,524)"/>
<path d="M0 0 C2.8125 0.1875 2.8125 0.1875 6 1 C7.875 3.5625 7.875 3.5625 9 6 C5.06326356 4.68775452 2.77280706 3.08089673 0 0 Z " fill="#62AAA1" transform="translate(109,519)"/>
<path d="M0 0 C1.65 0 3.3 0 5 0 C5.33 0.99 5.66 1.98 6 3 C5.34 3.66 4.68 4.32 4 5 C2 3.625 2 3.625 0 2 C0 1.34 0 0.68 0 0 Z " fill="#368E88" transform="translate(80,492)"/>
<path d="M0 0 C2 0 2 0 4.625 2.3125 C7 5 7 5 7 8 C6.67 7.34 6.34 6.68 6 6 C4.7625 5.566875 4.7625 5.566875 3.5 5.125 C1 4 1 4 0.1875 1.875 C0.125625 1.25625 0.06375 0.6375 0 0 Z " fill="#60AFA8" transform="translate(113,479)"/>
<path d="M0 0 C2.18975773 3.28463659 2.99806563 6.20696275 4 10 C0.65901324 7.77267549 0.09796221 6.75137087 -1 3 C-0.67 2.01 -0.34 1.02 0 0 Z " fill="#58A79D" transform="translate(70,413)"/>
<path d="M0 0 C1.67110042 2.96178773 2.32682752 5.37071192 2.625 8.75 C2.69976562 9.54921875 2.77453125 10.3484375 2.8515625 11.171875 C2.90054688 11.77515625 2.94953125 12.3784375 3 13 C2.34 12.67 1.68 12.34 1 12 C0.22565558 7.973409 -0.12412545 4.09613971 0 0 Z " fill="#68A9A3" transform="translate(62,382)"/>
<path d="M0 0 C-1.65 1.32 -3.3 2.64 -5 4 C-6.32 3.34 -7.64 2.68 -9 2 C-5.86501708 0.14223235 -3.62528568 -0.20140476 0 0 Z " fill="#419F93" transform="translate(185,337)"/>
<path d="M0 0 C0.99 0 1.98 0 3 0 C2.6875 2.375 2.6875 2.375 2 5 C1.01 5.66 0.02 6.32 -1 7 C-1.04254356 5.00045254 -1.04080783 2.99958364 -1 1 C-0.67 0.67 -0.34 0.34 0 0 Z " fill="#3C938F" transform="translate(202,315)"/>
<path d="M0 0 C1 2 1 2 0.375 4.5625 C-1 7 -1 7 -3.625 7.8125 C-4.40875 7.874375 -5.1925 7.93625 -6 8 C-4.02 5.36 -2.04 2.72 0 0 Z " fill="#59A89E" transform="translate(177,297)"/>
<path d="M0 0 C0.66 0 1.32 0 2 0 C2.33 1.98 2.66 3.96 3 6 C2.34 6 1.68 6 1 6 C0.67 5.67 0.34 5.34 0 5 C-0.99 5.66 -1.98 6.32 -3 7 C-2.67 5.68 -2.34 4.36 -2 3 C-1.34 3 -0.68 3 0 3 C0 2.01 0 1.02 0 0 Z " fill="#148076" transform="translate(180,294)"/>
<path d="M0 0 C0.66 0.33 1.32 0.66 2 1 C2 3.64 2 6.28 2 9 C0.68 7.68 -0.64 6.36 -2 5 C-1.34 3.35 -0.68 1.7 0 0 Z " fill="#1C8378" transform="translate(99,288)"/>
<path d="M0 0 C1.98 0.99 1.98 0.99 4 2 C4 2.66 4 3.32 4 4 C5.45833358 5.62514468 5.45833358 5.62514468 7 7 C6.01 8.485 6.01 8.485 5 10 C3.35 6.7 1.7 3.4 0 0 Z " fill="#70B5AF" transform="translate(363,275)"/>
<path d="M0 0 C1.32 0.66 2.64 1.32 4 2 C3.34 3.32 2.68 4.64 2 6 C1.01 5.67 0.02 5.34 -1 5 C-0.67 3.35 -0.34 1.7 0 0 Z " fill="#138175" transform="translate(52,271)"/>
<path d="M0 0 C1.52299523 2.93720508 2.80100302 5.9168649 4 9 C1.5625 8.1875 1.5625 8.1875 -1 7 C-1.33 6.01 -1.66 5.02 -2 4 C-1.34 4 -0.68 4 0 4 C0 2.68 0 1.36 0 0 Z " fill="#5AA9A0" transform="translate(204,214)"/>
<path d="M0 0 C0.66 0 1.32 0 2 0 C3.0625 1.875 3.0625 1.875 4 4 C3.67 4.66 3.34 5.32 3 6 C3.66 6.33 4.32 6.66 5 7 C4.01 8.485 4.01 8.485 3 10 C0 3.375 0 3.375 0 0 Z " fill="#53A499" transform="translate(235,105)"/>
<path d="M0 0 C1.73662334 3.22515763 2.8905928 6.51329166 4 10 C2.68 9.34 1.36 8.68 0 8 C0 5.36 0 2.72 0 0 Z " fill="#5FA79F" transform="translate(263,85)"/>
<path d="M0 0 C0 0.33 0 0.66 0 1 C-2.31 1 -4.62 1 -7 1 C-6.67 1.99 -6.34 2.98 -6 4 C-9 4 -9 4 -10.6875 2.5 C-11.120625 2.005 -11.55375 1.51 -12 1 C-8.0186217 -0.3271261 -4.14954773 -0.06915913 0 0 Z " fill="#6DB3AF" transform="translate(260,519)"/>
<path d="M0 0 C2.97 0.495 2.97 0.495 6 1 C6.33 2.32 6.66 3.64 7 5 C3.34683329 3.75023244 2.21934164 3.32901247 0 0 Z " fill="#569E99" transform="translate(100,512)"/>
<path d="M0 0 C1.32 0.66 2.64 1.32 4 2 C3.03114628 3.68496298 2.03013277 5.35178756 1 7 C0.67 7 0.34 7 0 7 C-0.38133299 5.0085944 -0.71325582 3.00720923 -1 1 C-0.67 0.67 -0.34 0.34 0 0 Z " fill="#469C94" transform="translate(392,454)"/>
<path d="M0 0 C0.99 0.33 1.98 0.66 3 1 C3 2.32 3 3.64 3 5 C1.68 5 0.36 5 -1 5 C-1.33 4.01 -1.66 3.02 -2 2 C-1.34 1.34 -0.68 0.68 0 0 Z " fill="#339389" transform="translate(380,242)"/>
<path d="M0 0 C0.66 0 1.32 0 2 0 C2 2.31 2 4.62 2 7 C1.01 7.33 0.02 7.66 -1 8 C-1.125 2.25 -1.125 2.25 0 0 Z " fill="#0F8676" transform="translate(187,176)"/>
<path d="M0 0 C1.65 0.99 3.3 1.98 5 3 C4.34 3.66 3.68 4.32 3 5 C2.34 5 1.68 5 1 5 C0.01 5.495 0.01 5.495 -1 6 C-0.67 4.02 -0.34 2.04 0 0 Z " fill="#33958B" transform="translate(299,152)"/>
<path d="M0 0 C-0.33 2.31 -0.66 4.62 -1 7 C-2.32 6.01 -3.64 5.02 -5 4 C-1.125 0 -1.125 0 0 0 Z " fill="#2E8D82" transform="translate(211,33)"/>
<path d="M0 0 C-2.98646769 1.99097846 -5.59687262 2.94124926 -9 4 C-9 3.01 -9 2.02 -9 1 C-5.92677456 0.08941469 -3.19902639 -0.08886184 0 0 Z " fill="#61A9A4" transform="translate(309,537)"/>
<path d="M0 0 C2.2477975 2.05233685 3.0022242 3.00667261 4 6 C1.08482708 4.92598892 -0.77810176 4.22189824 -3 2 C-2.01 1.34 -1.02 0.68 0 0 Z " fill="#489D95" transform="translate(131,529)"/>
<path d="M0 0 C0.99 0 1.98 0 3 0 C2.67 1.98 2.34 3.96 2 6 C1.01 5.67 0.02 5.34 -1 5 C-0.67 3.35 -0.34 1.7 0 0 Z " fill="#43988D" transform="translate(61,331)"/>
<path d="M0 0 C0.33 0 0.66 0 1 0 C1 3 1 6 1 9 C0.01 9.495 0.01 9.495 -1 10 C-1.125 3.375 -1.125 3.375 0 0 Z " fill="#158478" transform="translate(211,236)"/>
<path d="M0 0 C-0.33 1.98 -0.66 3.96 -1 6 C-1.99 5.67 -2.98 5.34 -4 5 C-4 3.68 -4 2.36 -4 1 C-2 0 -2 0 0 0 Z " fill="#148379" transform="translate(204,214)"/>
<path d="M0 0 C0 1.65 0 3.3 0 5 C0.66 5.33 1.32 5.66 2 6 C1.01 6 0.02 6 -1 6 C-2.6875 3.5 -2.6875 3.5 -4 1 C-2 0 -2 0 0 0 Z " fill="#57A39C" transform="translate(277,170)"/>
<path d="M0 0 C3.79588866 0.54226981 5.47211993 2.20127563 8 5 C6.35 4.67 4.7 4.34 3 4 C2.67 3.01 2.34 2.02 2 1 C1.34 0.67 0.68 0.34 0 0 Z " fill="#69B0A9" transform="translate(242,16)"/>
</svg>
